<?xml version="1.0" encoding="utf-8"?>
<!-- Generator: Adobe Illustrator 19.0.0, SVG Export Plug-In . SVG Version: 6.00 Build 0)  -->
<svg version="1.1" id="layer" xmlns="http://www.w3.org/2000/svg" xmlns:xlink="http://www.w3.org/1999/xlink" x="0px" y="0px"
	 viewBox="-153 -46 652 652" style="enable-background:new -153 -46 652 652;" xml:space="preserve">
<polygon points="-131.5,266.8 -67.7,266.8 -67.7,275.8 -113.6,275.8 -113.6,281.4 -70.4,281.4 -70.4,289.1 -113.6,289.1 
	-113.6,294.6 -67.1,294.6 -67.2,303.6 -131.5,303.6 "/>
<g>
	<path d="M-59.1,266.8h26.5l34.6,26.8v-26.8h17.9v36.8H-6.4c0,0-34.9-26.8-34.8-26.6c0,0.2,0,26.6,0,26.6h-17.9V266.8z"/>
	<path d="M150,294.6c0,0,7.2,0,12.4-0.3c2.3-0.1,4-0.5,5.1-2.1c1.3-1.8,1-5.1,1-8.1v-17.4h17.8v19.8c0,5.4,0.2,9-2.1,12.1
		c-2,2.7-6.6,4.2-10.4,4.9c-2.6,0.5-18.8,0.5-23.8,0.5c-5,0-21.2,0-23.8-0.5c-3.8-0.7-8.4-2.2-10.4-4.9c-2.3-3.1-2.1-6.7-2.1-12.1
		v-19.8h17.8v17.4c0,3-0.3,6.4,1,8.1c1.1,1.5,2.9,1.9,5.1,2.1C142.7,294.6,150,294.6,150,294.6"/>
	<path d="M310.2,275.7l-10.8,12.9h22.1C321.5,288.6,311.2,276.4,310.2,275.7 M299.2,266.8h22.9l31.1,36.8h-19.5l-5.7-6.2h-35.5
		l-5.7,6.2h-19.4C267.4,303.6,297.7,269.1,299.2,266.8"/>
	<path d="M87.8,289.5c-1.2,5.1-6.9,5.1-13.1,5.1H46.8v-18.7h27.9c6.2,0,11.9,0.1,13.1,5.2C88,281.6,88,288.9,87.8,289.5
		 M105.8,279.9c-0.1-10.4-11.7-12.9-24.9-12.9H29.1v36.7h51.8c13.2,0,24.8-2.5,24.9-12.9C105.8,288.4,105.8,282.1,105.8,279.9"/>
	<path d="M211.5,276.1v8.9h26.8c2.6,0,4,0.5,6.2-0.9c1-0.6,2.1-2.8,1.5-4.9c-0.9-3.4-4.8-3.1-7.7-3.1H211.5z M193.5,266.8h39.7
		c8.4,0,17.4-0.5,23.9,1.7c2.8,0.9,5.2,2.6,6.3,5.3c1.4,3.3,1.1,9-0.8,11.6c-1.1,1.6-3.3,2.6-5.3,3.2c-0.8,0.2-2.3,0.5-2.3,0.5h0.1
		c0.5,0.3,1.8,0.4,1.8,0.4s2.7,0.8,3.7,1.4c3.8,2.3,3.2,6.7,3.1,12.7h-17.8c0-2.2,0.5-6-0.4-7.6c-1.2-2.1-5.8-1.8-9.1-1.8h-24.9v9.4
		h-18V266.8z"/>
	<path d="M399.5,255.2c-10,6-16.5,9.2-22.4,3.1l23.2,27.6l23.4,27.5c-5-6.8-0.7-12.7,6.8-21.5l8.1,9.6l2.7-50.1l-49.9-5.7
		L399.5,255.2z"/>
	<path d="M384.4,259.4l1.3-0.1c0.7-0.1,1.4-0.3,2.2-0.5l1.1-0.4c1.2-0.5,2.5-1.1,3.9-1.9l-10.4-12.2c-1.1,1.1-2,2.1-2.8,3.1
		l-0.7,0.9c-0.5,0.6-0.8,1.2-1.1,1.8l-0.5,1.1c-1,2.2-0.8,3.9-0.1,4.9C378.6,257.9,380.8,259.5,384.4,259.4"/>
	<path d="M425.6,301.3l-0.6,1c-0.4,0.7-0.6,1.4-0.9,2.1l-0.3,1.3c-0.7,3.5,0.5,6,2.1,7.5c0.9,0.8,2.5,1.2,4.9,0.7l1.1-0.3
		c0.6-0.2,1.3-0.5,2-0.8l1-0.5c1.1-0.6,2.2-1.3,3.5-2.3l-10.3-12.3C427.1,299,426.3,300.1,425.6,301.3"/>
	<path d="M412.8,321.8c-25.8,0-46.8-21-46.8-46.8c0-25.8,21-46.8,46.8-46.8c25.8,0,46.8,21,46.8,46.8
		C459.6,300.8,438.6,321.8,412.8,321.8 M412.8,219.3c-30.7,0-55.7,25-55.7,55.7c0,30.7,25,55.7,55.7,55.7c30.7,0,55.7-25,55.7-55.7
		C468.5,244.3,443.5,219.3,412.8,219.3"/>
</g>
</svg>
