<?xml version="1.0" standalone="no"?>
<!DOCTYPE svg PUBLIC "-//W3C//DTD SVG 20010904//EN"
 "http://www.w3.org/TR/2001/REC-SVG-20010904/DTD/svg10.dtd">
<svg version="1.0" xmlns="http://www.w3.org/2000/svg"
 width="132.000000pt" height="132.000000pt" viewBox="0 0 132.000000 132.000000"
 preserveAspectRatio="xMidYMid meet">
<metadata>
Created by potrace 1.14, written by Peter Selinger 2001-2017
</metadata>
<g transform="translate(0.000000,132.000000) scale(0.100000,-0.100000)"
fill="#000000" stroke="none">
<path d="M470 1090 c-96 -24 -156 -49 -229 -99 -76 -52 -126 -110 -164 -191
-27 -55 -31 -76 -31 -145 0 -69 4 -90 31 -145 70 -148 201 -243 398 -291 294
-70 633 56 741 277 26 53 29 69 29 159 0 90 -3 106 -29 159 -64 130 -233 246
-408 281 -103 20 -244 18 -338 -5z m362 -49 c156 -40 290 -137 346 -250 23
-47 27 -69 27 -136 0 -102 -30 -168 -113 -247 -223 -213 -665 -212 -882 2 -82
81 -105 134 -105 245 0 75 4 98 24 140 54 109 186 204 341 244 103 27 261 28
362 2z"/>
<path d="M510 964 c-135 -29 -257 -112 -304 -206 -122 -245 219 -489 578 -413
139 29 270 116 319 210 28 54 28 146 0 200 -86 166 -356 261 -593 209z m90
-50 c-63 -19 -172 -105 -220 -171 -22 -31 -40 -62 -40 -68 0 -7 14 -15 31 -19
64 -12 76 -8 113 43 40 54 89 95 139 116 46 19 77 2 167 -91 70 -72 73 -74
120 -74 27 0 52 5 55 11 15 23 -104 162 -186 216 -21 14 -55 31 -76 39 -37 13
-38 13 -8 13 92 1 227 -53 300 -120 54 -49 75 -93 75 -154 0 -61 -21 -105 -75
-154 -95 -87 -220 -126 -380 -118 -235 12 -414 149 -389 299 20 125 202 243
379 246 l40 1 -45 -15z"/>
<path d="M278 644 c-12 -12 -9 -51 5 -61 6 -5 46 -17 88 -25 99 -21 159 -50
224 -109 29 -27 58 -49 65 -49 7 0 34 20 62 45 64 57 155 101 240 116 72 12
93 27 83 58 -9 29 -34 33 -111 21 -80 -13 -156 -45 -224 -95 l-49 -36 -64 45
c-36 24 -91 54 -124 66 -60 23 -183 38 -195 24z"/>
</g>
</svg>
