<svg xmlns="http://www.w3.org/2000/svg" width="120.996" height="29.809" viewBox="0 0 120.996 29.809">
  <g id="logo_100th" transform="translate(-1148.436 -819.346)">
    <g id="グループ_6" data-name="グループ 6">
      <g id="グループ_4" data-name="グループ 4">
        <g id="グループ_3" data-name="グループ 3">
          <g id="グループ_2" data-name="グループ 2">
            <path id="パス_1" data-name="パス 1" d="M1265.668,819.363c1.413,0,3.764,1.045,3.764,4.761v6.833c0,4.016-2.925,4.662-3.8,4.662H1257.8c-1.365,0-3.78-.978-3.78-4.711v-6.985c0-2.37,1.347-4.544,3.829-4.56Zm-5.423,2.836a1.825,1.825,0,0,0-1.791,1.758v7a1.8,1.8,0,0,0,1.775,1.826h2.974a1.838,1.838,0,0,0,1.776-1.775v-7.035a1.849,1.849,0,0,0-1.758-1.775Z" fill="#0099dc"/>
            <path id="パス_2" data-name="パス 2" d="M1217.243,824.062c-.016-2.764,1.491-4.716,3.836-4.716h8.377c2.246,0,3.7,1.986,3.7,4.616v11.6h-4.424v-3.59h-7.066v3.59h-4.426Zm4.426,4.747h7.05v-4.731a1.832,1.832,0,0,0-1.689-1.9h-3.591a1.861,1.861,0,0,0-1.771,1.785Z" fill="#0099dc"/>
            <path id="パス_3" data-name="パス 3" d="M1236.109,835.592h4.445V822.2h4.385a1.886,1.886,0,0,1,1.836,1.794v11.6h4.384V824.109c0-2.211-1.007-4.783-3.852-4.723h-11.2Z" fill="#0099dc"/>
            <path id="パス_4" data-name="パス 4" d="M1193.506,819.387v16.205h4.385V822.2h3.85v13.4h4.443V822.2h2.015a1.874,1.874,0,0,1,1.779,1.794v11.6h4.445v-11.6c0-2.332-1.245-4.6-3.794-4.6Z" fill="#0099dc"/>
            <g id="グループ_1" data-name="グループ 1">
              <rect id="長方形_1" data-name="長方形 1" width="4.692" height="16.218" transform="translate(1185.372 819.351)" fill="#0099dc"/>
            </g>
            <path id="パス_5" data-name="パス 5" d="M1166.547,819.386v16.205h4.443V832h6.518v3.589h4.444V819.386h-4.444v9.448h-6.518v-9.448Z" fill="#0099dc"/>
            <path id="パス_6" data-name="パス 6" d="M1163.643,819.387H1152.65a4.065,4.065,0,0,0-3.939,2.69,9.021,9.021,0,0,0,.059,4.663,4.03,4.03,0,0,0,3.857,2.392c.77,0,4.973,0,5.742,0,.83,0,1.363.6,1.424,1.735.058,1.076-.356,1.913-1.424,1.913h-9.422v2.811h11.021a3.62,3.62,0,0,0,3.674-2.452,7.857,7.857,0,0,0,0-5.384,3.837,3.837,0,0,0-3.792-2.271h-5.806c-.83,0-1.3-.6-1.3-1.674s.475-1.674,1.3-1.674h9.6Z" fill="#0099dc"/>
          </g>
        </g>
      </g>
      <rect id="長方形_2" data-name="長方形 2" width="120.996" height="2.712" transform="translate(1148.436 841.019)" fill="#6fbd16"/>
      <rect id="長方形_3" data-name="長方形 3" width="120.996" height="2.711" transform="translate(1148.436 843.731)" fill="#0099dc"/>
      <rect id="長方形_4" data-name="長方形 4" width="120.996" height="2.712" transform="translate(1148.436 846.443)" fill="#002891"/>
    </g>
  </g>
</svg>
