<svg width="138" height="120" viewBox="0 0 138 120" fill="none" xmlns="http://www.w3.org/2000/svg">
<rect x="9" width="120" height="120" rx="60" fill="#F8F8F8"/>
<path fill-rule="evenodd" clip-rule="evenodd" d="M109.877 45.8334C110.826 46.0073 112.397 46.9659 112.54 48.1178C112.576 48.4036 112.523 48.7013 112.351 49.0021C111.965 49.6755 110.933 49.9691 110.242 50.1657L110.228 50.1696C108.191 50.7492 106.249 51.3412 104.303 52.1881C104.051 52.298 103.624 52.4959 103.488 52.7493C103.277 53.1421 103.758 53.2717 104.097 53.2569C104.418 53.2432 104.742 53.2186 105.066 53.194C105.262 53.1791 105.459 53.1642 105.655 53.1517C107.437 53.0385 109.226 52.996 111.011 53.0167C111.393 53.0211 111.776 53.0291 112.159 53.037C112.569 53.0455 112.978 53.054 113.387 53.0582C114.061 53.0652 115.423 53.3427 114.565 54.1774C114.148 54.5829 113.495 54.933 112.935 55.0863C110.023 55.8807 107.013 56.3642 103.991 56.1844C103.807 56.1734 103.62 56.1691 103.433 56.1647C102.938 56.1531 102.438 56.1414 101.961 56.0069C101.322 55.8268 100.904 55.402 100.453 54.9433C100.431 54.921 100.409 54.8986 100.387 54.8762C100.373 54.8633 100.361 54.856 100.335 54.856C99.828 54.856 99.3556 55.0825 98.8894 55.306C98.6454 55.423 98.4031 55.5391 98.1585 55.6216C97.4588 55.8577 96.7123 55.9693 95.9779 56.0235C93.6765 56.1916 92.1618 54.1658 91.8735 52.0366C91.6719 50.5471 92.2989 48.9477 93.2293 47.8108C93.9467 46.9346 94.9505 46.3703 95.9868 45.971C97.0365 45.5666 98.3506 45.1404 99.4419 45.6168C100.053 45.8837 100.615 46.5692 100.233 47.2543C99.9331 47.7906 99.3486 47.844 98.8106 47.8618C96.655 47.9336 94.9088 49.1389 93.7829 50.9818C93.5808 51.3129 93.3862 51.777 93.5773 52.1584C93.8237 52.6499 94.5989 52.7155 95.12 52.7596C95.1702 52.7639 95.2181 52.7679 95.2629 52.7721C96.027 52.8442 96.7947 52.8284 97.5609 52.8071C98.567 52.7799 99.5896 52.7216 100.552 52.3988C101.842 51.9657 103.111 51.2933 104.345 50.6391C104.725 50.4378 105.101 50.2382 105.474 50.0478C105.819 49.8714 106.157 49.6821 106.495 49.4928C106.729 49.3616 106.963 49.2304 107.2 49.1034C107.285 49.0579 107.381 49.0122 107.481 48.9642C107.851 48.7876 108.284 48.5807 108.461 48.2458C108.035 48.0632 107.447 48.1289 106.948 48.1847C106.834 48.1975 106.725 48.2097 106.623 48.2184C106.51 48.2279 106.394 48.2359 106.276 48.2439C105.838 48.274 105.38 48.3055 104.971 48.4254C104.944 48.4332 104.917 48.4414 104.889 48.4498C104.412 48.5923 103.715 48.8006 103.358 48.3474C103.095 48.0124 103.201 47.452 103.34 47.0841C103.687 46.1594 104.164 45.813 105.162 45.7098C105.853 45.6383 106.55 45.6046 107.245 45.6122C108.126 45.622 109.009 45.6741 109.877 45.8334ZM48.756 48.717C48.7312 48.8382 48.707 48.9569 48.6905 49.0703C48.6869 49.0954 48.6836 49.12 48.6808 49.1444C48.6651 49.2814 48.6514 49.4186 48.6377 49.5558C48.5945 49.9883 48.5513 50.4209 48.4472 50.8461C48.3483 51.2501 48.2646 51.6607 48.1804 52.074C48.0959 52.4887 48.0108 52.9061 47.9092 53.3222C47.8742 53.4658 47.8423 53.6157 47.8097 53.7688C47.6341 54.5933 47.4385 55.5116 46.6314 56.0391C45.8757 56.5332 45.0921 56.4259 44.9827 55.5196C44.9105 54.9203 44.9594 54.3166 45.0277 53.7189C45.0666 53.3789 45.1004 53.0417 45.1341 52.7063C45.2455 51.5957 45.355 50.5047 45.6409 49.3955C45.8182 48.7076 46.0085 48.0067 46.2712 47.3385C46.3028 47.2585 46.3372 47.1266 46.3772 46.9737C46.4843 46.5636 46.6308 46.0029 46.8658 45.8894C47.2659 45.6962 47.9131 46.298 48.1121 46.5356C48.1272 46.5537 48.1423 46.5716 48.1574 46.5895C48.3497 46.8178 48.544 47.0485 48.7688 47.5642C48.9204 47.9122 48.8355 48.3275 48.756 48.717ZM53.3564 48.8463C53.3901 48.9688 53.4515 49.0538 53.5316 49.1105C54.0499 49.4774 55.4262 49.0385 55.9698 48.8616C55.9935 48.8538 56.0179 48.8462 56.0428 48.8385C56.259 48.7713 56.507 48.6942 56.5529 48.4398C56.6071 48.1361 56.2932 47.8993 56.0248 47.863C55.7877 47.8306 55.5669 47.782 55.3513 47.7346C54.8836 47.6316 54.4401 47.5339 53.9054 47.6187C53.2047 47.7293 53.1852 48.2263 53.3564 48.8463ZM74.9484 54.8725C74.9462 54.9419 74.944 55.0119 74.9407 55.0818C74.9144 55.643 74.8256 56.1915 74.1623 56.3368C73.49 56.484 72.6759 55.5088 72.5588 54.9131C72.4492 54.356 72.5011 53.7082 72.5492 53.1075C72.563 52.9341 72.5766 52.7646 72.5859 52.6023C72.5928 52.4819 72.5992 52.3613 72.6056 52.2407C72.6304 51.7729 72.6552 51.3044 72.7115 50.8397C72.7163 50.7999 72.7232 50.7539 72.7308 50.704C72.7841 50.3513 72.8668 49.8037 72.424 49.8888C72.1759 49.9366 71.9649 50.1888 71.7782 50.4119C71.7053 50.499 71.6362 50.5816 71.57 50.6459C71.2962 50.9124 70.9971 51.1488 70.6981 51.3853C70.5191 51.5268 70.3401 51.6683 70.1666 51.8162C69.6764 52.2349 69.2011 52.4712 68.5442 52.4261C68.0847 52.3943 67.7455 52.1665 67.4175 51.8574C67.3889 51.8304 67.3583 51.7998 67.326 51.7675C67.087 51.5286 66.7605 51.2024 66.5304 51.6185C66.3684 51.9111 66.3036 52.2647 66.2403 52.6105C66.2073 52.7901 66.1748 52.9677 66.1292 53.1334C66.0929 53.2655 66.0538 53.4985 66.0059 53.7848C65.7793 55.1364 65.354 57.6742 64.0765 56.3646C63.8936 56.1772 63.7419 55.9542 63.6186 55.7228C63.5619 55.6165 63.5198 55.5139 63.4811 55.42C63.3469 55.0934 63.2555 54.8713 62.7465 54.9593C62.4887 55.0039 62.249 55.101 62.0093 55.1981C61.8109 55.2785 61.6126 55.3588 61.4042 55.4093C60.6705 55.5863 59.8678 55.7047 59.1238 55.5184C56.7429 54.9214 54.604 54.1708 52.6843 53.2449C52.7567 53.2797 52.3419 54.2368 52.2055 54.5515C52.1857 54.5972 52.1718 54.6293 52.166 54.6432C52.1187 54.7581 52.0792 54.8782 52.0399 54.9977C51.9069 55.4027 51.7765 55.7998 51.3492 55.9588C50.9297 56.1156 50.4971 55.9785 50.2451 55.5808C50.1364 55.4093 50.0635 54.9248 50.0407 54.7082C49.9353 53.7009 50.1261 52.7637 50.3889 51.7986C50.4429 51.6004 50.4944 51.4015 50.546 51.2026C50.6496 50.8031 50.7532 50.4037 50.8765 50.0098C50.909 49.9059 50.9642 49.7814 51.0237 49.6475C51.1849 49.2843 51.3773 48.8511 51.2328 48.5657C51.1622 48.4265 51.0732 48.3439 50.9873 48.2642C50.8782 48.163 50.7741 48.0664 50.7191 47.8643C50.6398 47.5734 50.5782 47.208 50.6304 46.907C50.8452 45.6712 53.1739 45.7955 54.299 45.8556C54.4156 45.8618 54.5193 45.8673 54.6063 45.8706C55.946 45.9206 61.1661 46.7108 59.6713 49.2258C59.4176 49.6521 58.956 49.8856 58.5274 50.1023C58.4904 50.121 58.4538 50.1395 58.4175 50.158C57.8708 50.4379 57.2845 50.6094 56.6882 50.74C56.5234 50.7763 56.3531 50.8156 56.1803 50.8556C55.7843 50.9472 55.3751 51.0418 54.9883 51.1094C56.3477 51.618 57.7235 52.081 59.1228 52.465C59.8694 52.6701 60.6272 52.819 61.3843 52.9678C62.0397 53.0966 62.6945 53.2253 63.341 53.3902C63.3712 53.3982 63.3943 53.3982 63.4168 53.3982C63.4996 53.1142 63.5878 52.8197 63.6777 52.5194C63.9732 51.5327 64.2875 50.4832 64.4933 49.5331C64.5733 49.1634 64.6654 48.7974 64.7576 48.4313C64.8131 48.2109 64.8686 47.9905 64.9215 47.7692C64.9538 47.634 64.9777 47.4913 65.0018 47.3469C65.0656 46.966 65.1314 46.5728 65.359 46.2701C65.8409 45.6291 66.8624 46.4432 67.2249 46.8409C67.3487 46.9769 68.4175 48.7315 68.2697 48.7812C69.0206 48.5277 69.7063 48.1333 70.3916 47.7392C70.8681 47.4652 71.3443 47.1913 71.842 46.965C72.9868 46.4445 73.8519 46.8054 74.7253 47.6436C75.5799 48.4642 75.4586 49.5194 75.3352 50.5933C75.3304 50.6349 75.3256 50.6766 75.3209 50.7182C75.1758 51.9966 75.0517 53.2778 74.9619 54.561C74.9551 54.662 74.9518 54.7666 74.9484 54.8725ZM88.9106 53.6928C89.1382 54.1475 89.0582 54.7934 88.8136 55.2209C88.3859 55.9689 87.6481 56.6864 86.8655 55.9314C86.5028 55.5813 86.1753 54.7888 86.3301 54.2877C86.4693 53.8369 86.9372 53.6801 87.3511 53.6027C87.416 53.5906 87.4946 53.5719 87.5817 53.5512C88.0304 53.4445 88.706 53.2838 88.9106 53.6928ZM87.7552 47.0984C88.0307 47.3883 88.1057 47.8669 88.0606 48.3286C88.0504 48.4335 88.0338 48.5304 88.0115 48.6138C87.8754 49.1227 87.3694 49.6414 86.9624 49.9515C86.2026 50.5314 85.2822 50.912 84.3768 51.1863C83.9064 51.3291 83.4272 51.4423 82.945 51.534C82.516 51.6159 82.0637 51.6965 81.592 51.7525C81.5879 51.7531 81.5839 51.7537 81.5799 51.7544C81.5638 51.7571 81.5476 51.7597 81.5267 51.7597C81.4518 51.7597 81.4053 52.9084 81.3917 53.2453C81.3899 53.2881 81.3887 53.3177 81.3881 53.3303C81.3675 53.7203 81.3519 54.1108 81.3363 54.5012C81.3309 54.6353 81.3256 54.7693 81.32 54.9033C81.3149 55.0276 81.316 55.1639 81.3171 55.3051C81.3235 56.0952 81.331 57.0365 80.2571 56.8721C79.428 56.7456 79.3737 55.7221 79.3354 55C79.3295 54.8879 79.3239 54.7831 79.3159 54.69C79.3019 54.5232 79.2919 54.355 79.2827 54.1882C79.2773 54.0926 79.2718 53.9969 79.2663 53.9011C79.2389 53.4254 79.2115 52.9484 79.2021 52.4733C79.2007 52.4041 79.2034 52.3264 79.2061 52.2465C79.2114 52.0942 79.2169 51.9338 79.1949 51.8087C79.1495 51.5533 78.952 51.4914 78.7333 51.4229C78.712 51.4162 78.6904 51.4094 78.6687 51.4024C78.6137 51.3848 78.5634 51.3706 78.5162 51.3573C78.3494 51.3103 78.2221 51.2745 78.0686 51.1356C77.482 50.6055 77.1589 49.8282 77.065 49.0488C76.9688 48.2503 77.0686 47.6117 77.175 47.1233C77.2827 46.6292 77.4671 46.138 77.9777 46.0639C78.5613 46.138 78.7025 46.4766 78.9 46.981C78.9087 47.0031 78.9229 47.0612 78.9428 47.1425C79.0313 47.504 79.2316 48.3224 79.5518 48.4439C79.944 48.5931 80.5966 48.5654 81.253 48.4781C82.394 48.326 83.2602 48.1008 84.2487 47.6783C84.3193 47.648 84.3907 47.618 84.4624 47.5878C84.8716 47.4154 85.2921 47.2383 85.6595 46.9953C85.7289 46.9495 85.8008 46.8953 85.8751 46.8392C86.1727 46.6148 86.51 46.3605 86.8834 46.496C87.1896 46.6072 87.5234 46.8551 87.7552 47.0984Z" fill="black"/>
<path fill-rule="evenodd" clip-rule="evenodd" d="M43.3196 41.3972C43.031 40.9166 42.5744 40.5173 42.0952 40.2543C40.3106 39.2758 38.2983 39.2651 36.3265 39.2592C34.8974 39.2548 33.4687 39.3571 32.0525 39.5514C31.2707 39.6587 30.4922 39.7947 29.7196 39.9564C28.8 40.1491 27.8846 40.3642 26.9862 40.6427C26.1706 40.8958 25.3832 41.3433 24.6314 41.7485C24.2811 41.9374 23.9082 42.1866 23.7409 42.5683C23.5403 43.0256 23.7378 43.4619 23.7772 43.9272C23.8319 44.5726 24.1067 44.7724 24.4418 45.2576C25.1036 46.2165 26.163 46.4774 27.2502 46.066C27.5349 45.958 28.2372 45.4483 28.504 45.5242C28.9381 45.6478 28.5664 46.9635 28.4748 47.2811C28.3497 47.7149 28.1167 48.0385 27.6907 48.1963C27.3331 48.3286 26.5922 48.2522 26.474 48.7235C26.1445 50.0386 27.5544 51.0092 27.7488 52.1787C27.846 52.7627 27.5981 53.348 27.5342 53.925C27.4495 54.6831 27.4047 55.4492 27.3408 56.2097C27.3106 56.5659 27.2065 57.0559 27.2433 57.4046C27.2998 57.9368 27.9107 58.2588 28.3712 58.0847C29.0993 57.8093 29.4845 56.9056 29.78 56.2408C30.1845 55.3298 30.3981 54.4033 30.5876 53.4296C30.715 52.7767 30.9414 52.0816 31.6984 51.9994C32.6989 51.8911 33.6733 51.6209 34.6756 51.5137C35.7529 51.3984 36.8389 51.3512 37.9044 51.1424C38.6148 51.0027 39.3408 51.0245 40.0555 50.9242C41.26 50.7563 42.6821 50.3053 43.7284 49.6637C44.2392 49.3505 44.4385 48.6476 44.6496 48.1203C45.2019 46.7381 41.4462 46.9283 40.8778 46.9233C39.2594 46.9091 37.7596 46.9513 36.3771 47.0638C35.3658 47.1462 34.3684 47.219 33.3531 47.1998C32.9095 47.1918 32.2645 47.1959 31.9752 46.7917C31.636 46.3178 31.8772 45.2825 32.0875 44.7941C32.353 44.1767 33.3633 44.3488 33.8875 44.3099C34.7785 44.2438 35.6641 44.1153 36.5572 44.0775C38.4579 43.9969 40.2789 43.9171 42.1615 43.6158C42.635 43.5399 43.4779 43.3826 43.5935 42.8066C43.6954 42.2991 43.5715 41.8172 43.3196 41.3972Z" fill="#CC0000"/>
<path d="M41.7563 21.0553C42.1191 21.6946 42.7404 22.1461 43.4604 22.2936L43.9058 22.3844L43.5991 22.7203C43.1032 23.2629 42.8664 23.9938 42.9487 24.7242L42.9995 25.1754L42.5854 24.9879L42.3306 24.8883C41.8122 24.7171 41.2523 24.7171 40.7339 24.8883L40.479 24.9879L40.064 25.1754L40.1157 24.7242C40.1981 23.9938 39.9612 23.2629 39.4653 22.7203L39.1577 22.3844L39.604 22.2936C40.324 22.1461 40.9454 21.6945 41.3081 21.0553L41.5317 20.6598L41.7563 21.0553Z" stroke="#CC0000" stroke-width="3.81994"/>
<path d="M98.282 21.0553C98.6447 21.6946 99.266 22.1461 99.9861 22.2936L100.431 22.3844L100.125 22.7203C99.6288 23.2629 99.392 23.9938 99.4744 24.7242L99.5251 25.1754L99.1111 24.9879L98.8562 24.8883C98.3378 24.7171 97.7779 24.7171 97.2595 24.8883L97.0046 24.9879L96.5896 25.1754L96.6414 24.7242C96.7237 23.9938 96.4868 23.2629 95.991 22.7203L95.6833 22.3844L96.1296 22.2936C96.8496 22.1461 97.4711 21.6945 97.8337 21.0553L98.0574 20.6598L98.282 21.0553Z" stroke="#CC0000" stroke-width="3.81994"/>
<path d="M84.2756 15.962C84.6383 16.6013 85.2597 17.0528 85.9797 17.2003L86.425 17.2911L86.1184 17.6271C85.6225 18.1696 85.3857 18.9005 85.468 19.631L85.5188 20.0822L85.1047 19.8947L84.8499 19.795C84.3315 19.6238 83.7716 19.6239 83.2532 19.795L82.9983 19.8947L82.5833 20.0822L82.635 19.631C82.7173 18.9006 82.4805 18.1696 81.9846 17.6271L81.677 17.2911L82.1233 17.2003C82.8432 17.0528 83.4647 16.6013 83.8274 15.962L84.051 15.5665L84.2756 15.962Z" stroke="#CC0000" stroke-width="3.81994"/>
<path d="M56.2615 15.5507C56.6242 16.1899 57.2455 16.6415 57.9656 16.7889L58.4109 16.8798L58.1042 17.2157C57.6083 17.7583 57.3715 18.4891 57.4539 19.2196L57.5046 19.6708L57.0906 19.4833L56.8357 19.3837C56.3173 19.2124 55.7574 19.2125 55.239 19.3837L54.9841 19.4833L54.5691 19.6708L54.6208 19.2196C54.7032 18.4892 54.4663 17.7582 53.9705 17.2157L53.6628 16.8798L54.1091 16.7889C54.8291 16.6414 55.4506 16.1899 55.8132 15.5507L56.0369 15.1552L56.2615 15.5507Z" stroke="#CC0000" stroke-width="3.81994"/>
<path d="M70.2654 13.004C70.6281 13.6433 71.2494 14.0948 71.9695 14.2423L72.4148 14.3331L72.1082 14.6691C71.6122 15.2116 71.3754 15.9425 71.4578 16.673L71.5085 17.1241L71.0945 16.9366L70.8396 16.837C70.3212 16.6658 69.7613 16.6659 69.2429 16.837L68.988 16.9366L68.573 17.1241L68.6248 16.673C68.7071 15.9426 68.4702 15.2116 67.9744 14.6691L67.6667 14.3331L68.113 14.2423C68.833 14.0948 69.4545 13.6432 69.8171 13.004L70.0408 12.6085L70.2654 13.004Z" stroke="#CC0000" stroke-width="3.81994"/>
<path d="M8 65H130V93H8V65Z" fill="#CC0000"/>
<path d="M24.9244 75.392L24.9244 73.3636L34.4813 73.3636L34.4813 75.392L30.9188 75.392L30.9188 85L28.4869 85L28.4869 75.392L24.9244 75.392ZM46.217 79.1818C46.217 80.4508 45.9765 81.5303 45.4955 82.4205C45.0182 83.3106 44.3667 83.9905 43.5409 84.4602C42.7189 84.9261 41.7947 85.1591 40.7682 85.1591C39.7341 85.1591 38.8061 84.9242 37.9841 84.4545C37.1621 83.9848 36.5125 83.3049 36.0352 82.4148C35.558 81.5246 35.3193 80.447 35.3193 79.1818C35.3193 77.9129 35.558 76.8333 36.0352 75.9432C36.5125 75.053 37.1621 74.375 37.9841 73.9091C38.8061 73.4394 39.7341 73.2045 40.7682 73.2045C41.7947 73.2045 42.7189 73.4394 43.5409 73.9091C44.3667 74.375 45.0182 75.053 45.4955 75.9432C45.9765 76.8333 46.217 77.9129 46.217 79.1818ZM43.7227 79.1818C43.7227 78.3598 43.5996 77.6667 43.3534 77.1023C43.111 76.5379 42.7682 76.1098 42.325 75.8182C41.8818 75.5265 41.3629 75.3807 40.7682 75.3807C40.1735 75.3807 39.6545 75.5265 39.2114 75.8182C38.7682 76.1098 38.4235 76.5379 38.1773 77.1023C37.9348 77.6667 37.8136 78.3598 37.8136 79.1818C37.8136 80.0038 37.9348 80.697 38.1773 81.2614C38.4235 81.8258 38.7682 82.2538 39.2114 82.5455C39.6545 82.8371 40.1735 82.983 40.7682 82.983C41.3629 82.983 41.8818 82.8371 42.325 82.5455C42.7682 82.2538 43.111 81.8258 43.3534 81.2614C43.5996 80.697 43.7227 80.0038 43.7227 79.1818ZM48.0395 85L48.0395 73.3636L52.6304 73.3636C53.513 73.3636 54.2649 73.5322 54.8861 73.8693C55.5073 74.2027 55.9808 74.6667 56.3065 75.2614C56.6361 75.8523 56.8009 76.5341 56.8009 77.3068C56.8009 78.0795 56.6342 78.7614 56.3009 79.3523C55.9675 79.9432 55.4846 80.4034 54.852 80.733C54.2232 81.0625 53.4618 81.2273 52.5679 81.2273L49.6418 81.2273L49.6418 79.2557L52.1702 79.2557C52.6437 79.2557 53.0338 79.1742 53.3406 79.0114C53.6512 78.8447 53.8823 78.6155 54.0338 78.3239C54.1891 78.0284 54.2668 77.6894 54.2668 77.3068C54.2668 76.9205 54.1891 76.5833 54.0338 76.2955C53.8823 76.0038 53.6512 75.7784 53.3406 75.6193C53.03 75.4564 52.6361 75.375 52.1588 75.375L50.4997 75.375L50.4997 85L48.0395 85ZM62.422 85L62.422 73.3636L70.1265 73.3636L70.1265 75.392L64.8822 75.392L64.8822 78.1648L69.6152 78.1648L69.6152 80.1932L64.8822 80.1932L64.8822 85L62.422 85ZM74.5616 73.3636L74.5616 85L72.1014 85L72.1014 73.3636L74.5616 73.3636ZM76.9057 85L76.9057 73.3636L81.4966 73.3636C82.3754 73.3636 83.1254 73.5208 83.7466 73.8352C84.3716 74.1458 84.847 74.5871 85.1728 75.1591C85.5023 75.7273 85.6671 76.3958 85.6671 77.1648C85.6671 77.9375 85.5004 78.6023 85.1671 79.1591C84.8338 79.7121 84.3508 80.1364 83.7182 80.4318C83.0895 80.7273 82.3281 80.875 81.4341 80.875L78.3603 80.875L78.3603 78.8977L81.0364 78.8977C81.5061 78.8977 81.8963 78.8333 82.2069 78.7045C82.5175 78.5758 82.7485 78.3826 82.9001 78.125C83.0554 77.8674 83.133 77.5473 83.133 77.1648C83.133 76.7784 83.0554 76.4527 82.9001 76.1875C82.7485 75.9223 82.5156 75.7216 82.2012 75.5852C81.8906 75.4451 81.4985 75.375 81.0251 75.375L79.366 75.375L79.366 85L76.9057 85ZM83.1898 79.7045L86.0819 85L83.366 85L80.5364 79.7045L83.1898 79.7045ZM87.7257 73.3636L90.7598 73.3636L93.9644 81.1818L94.1007 81.1818L97.3053 73.3636L100.339 73.3636L100.339 85L97.953 85L97.953 77.4261L97.8564 77.4261L94.8451 84.9432L93.2201 84.9432L90.2087 77.3977L90.1121 77.3977L90.1121 85L87.7257 85L87.7257 73.3636ZM104.692 85L102.056 85L106.073 73.3636L109.243 73.3636L113.255 85L110.618 85L107.703 76.0227L107.613 76.0227L104.692 85ZM104.527 80.4261L110.755 80.4261L110.755 82.3466L104.527 82.3466L104.527 80.4261Z" fill="white"/>
<path d="M8 79L3.41975 70.9846C1.89596 68.3179 3.82143 65 6.89272 65H8V79Z" fill="#CC0000"/>
<path d="M8 79L3.41975 87.0154C1.89596 89.6821 3.82143 93 6.89272 93H8V79Z" fill="#CC0000"/>
<path d="M130 79L134.58 70.9846C136.104 68.3179 134.179 65 131.107 65H130V79Z" fill="#CC0000"/>
<path d="M130 79L134.58 87.0154C136.104 89.6821 134.179 93 131.107 93H130V79Z" fill="#CC0000"/>
<text fill="black" style="white-space: pre" xml:space="preserve" font-family="Arial" font-size="11" font-weight="bold" letter-spacing="0em"><tspan x="57.2367" y="108">2025</tspan></text>
</svg>
